<svg xmlns="http://www.w3.org/2000/svg" width="164" height="36" viewBox="0 0 164 36">
  <path fill-rule="evenodd" d="M29.324,6.4 C38.588,6.4 45.644,13.696 45.644,23.2 C45.644,32.704 38.588,40 29.324,40 L15.884,40 L15.884,6.4 L29.324,6.4 Z M29.324,32.608 C34.604,32.608 38.252,28.96 38.252,23.2 C38.252,17.44 34.604,13.792 29.324,13.792 L23.564,13.792 L23.564,32.608 L29.324,32.608 Z M58.124,32.608 L71.564,32.608 L71.564,40 L50.444,40 L50.444,6.4 L71.324,6.4 L71.324,13.792 L58.124,13.792 L58.124,19.36 L70.124,19.36 L70.124,26.656 L58.124,26.656 L58.124,32.608 Z M84.428,40 L73.484,6.4 L81.884,6.4 L89.324,31.12 L96.764,6.4 L105.164,6.4 L94.22,40 L84.428,40 Z M108.524,6.4 L116.204,6.4 L116.204,40 L108.524,40 L108.524,6.4 Z M138.476,40.672 C128.348,40.672 121.004,33.088 121.004,23.2 C121.004,13.312 128.348,5.728 138.476,5.728 C144.572,5.728 149.948,8.752 152.876,13.504 L146.252,17.344 C144.764,14.752 141.884,13.216 138.476,13.216 C132.524,13.216 128.684,17.2 128.684,23.2 C128.684,29.2 132.524,33.184 138.476,33.184 C141.884,33.184 144.812,31.648 146.252,29.056 L152.876,32.896 C149.996,37.648 144.62,40.672 138.476,40.672 Z M164.636,32.608 L178.076,32.608 L178.076,40 L156.956,40 L156.956,6.4 L177.836,6.4 L177.836,13.792 L164.636,13.792 L164.636,19.36 L176.636,19.36 L176.636,26.656 L164.636,26.656 L164.636,32.608 Z" transform="translate(-15 -5)"/>
</svg>
