<svg xmlns="http://www.w3.org/2000/svg" width="160" height="160" viewBox="0 0 160 160">
  <g fill="#363636">
    <path d="M126.967,54.074 C127.719,55.515 128.176,57.154 128.176,58.892 L128.176,79.994 C128.176,84.61 125.084,88.521 120.93,89.894 C119.605,93.881 117.152,97.748 112.879,100.326 C104.203,105.557 81.755,105.163 81.681,105.163 C81.603,105.163 59.168,105.558 50.492,100.326 C46.276,97.781 43.784,93.979 42.45,90.047 C38.032,88.838 34.694,84.796 34.694,79.994 L34.694,58.893 C34.694,57.205 35.121,55.611 35.833,54.2 C32.17,55.109 28,56.918 28,60.434 L28,90.417 C28,100.668 39.839,114.85 81.657,114.85 C123.477,114.85 135.314,100.668 135.314,90.417 L135.314,60.434 C135.313,56.75 130.738,54.94 126.967,54.074 Z"/>
    <path d="M48.561,88.459 L114.084,88.459 C119.648,88.459 124.158,83.946 124.158,78.382 L124.158,59.935 C124.158,54.372 119.648,49.86 114.084,49.86 L48.561,49.86 C42.997,49.86 38.486,54.371 38.486,59.935 L38.486,78.382 C38.486,83.946 42.997,88.459 48.561,88.459 Z M111.695,59.468 C112.265174,59.4536067 112.798305,59.7495638 113.087628,60.2410894 C113.376951,60.7326149 113.376951,61.3423851 113.087628,61.8339106 C112.798305,62.3254362 112.265174,62.6213933 111.695,62.607 C110.843618,62.5855079 110.16462,61.8891529 110.16462,61.0375 C110.16462,60.1858471 110.843618,59.4894921 111.695,59.468 Z M111.695,63.507 C112.561535,63.507 113.264,64.2094652 113.264,65.076 C113.264,65.9425348 112.561535,66.645 111.695,66.645 C110.828465,66.645 110.126,65.9425348 110.126,65.076 C110.126,64.2094652 110.828465,63.507 111.695,63.507 Z M111.695,67.546 C112.255371,67.5458213 112.773271,67.8446107 113.053611,68.329817 C113.333951,68.8150233 113.334142,69.4129321 113.054111,69.898317 C112.77408,70.3837019 112.256371,70.6828214 111.696,70.683 C110.829741,70.6832761 110.127276,69.9812586 110.127,69.115 C110.126724,68.2487414 110.828741,67.5462761 111.695,67.546 Z M111.695,71.373 C112.255907,71.3731786 112.774111,71.672584 113.05441,72.158433 C113.334709,72.644282 113.334518,73.2427626 113.05391,73.728433 C112.773302,74.2141034 112.254907,74.5131786 111.694,74.513 C110.826913,74.5127238 110.124224,73.809587 110.1245,72.9425 C110.124776,72.075413 110.827913,71.3727239 111.695,71.373 Z M111.695,75.412 C112.561259,75.4117239 113.263724,76.1137414 113.264,76.98 C113.264276,77.8462586 112.562259,78.5487239 111.696,78.549 C110.829741,78.5492761 110.127276,77.8472586 110.127,76.981 C110.126724,76.1147414 110.828741,75.4122761 111.695,75.412 Z M107.656,59.468 C108.523,59.468 109.224,60.171 109.224,61.038 C109.224,61.9039825 108.521982,62.606 107.656,62.606 C106.790018,62.606 106.088,61.9039825 106.088,61.038 C106.088,60.17 106.791,59.468 107.656,59.468 Z M107.656,75.412 C108.225453,75.3976157 108.757915,75.6931936 109.046875,76.1840967 C109.335835,76.6749997 109.335835,77.2840003 109.046875,77.7749033 C108.757915,78.2658064 108.225453,78.5613843 107.656,78.547 C106.805713,78.5255219 106.127595,77.8300582 106.127595,76.9795 C106.127595,76.1289418 106.805713,75.4334781 107.656,75.412 Z M103.619,59.468 C104.486087,59.4688284 105.188328,60.1724129 105.1875,61.0395 C105.186672,61.9065871 104.483087,62.6088284 103.616,62.608 C102.748913,62.6071716 102.046672,61.9035871 102.0475,61.0365 C102.048328,60.1694129 102.751913,59.4671716 103.619,59.468 Z M103.619,63.507 C104.189181,63.4931621 104.722018,63.7896311 105.010865,64.2814288 C105.299711,64.7732266 105.299129,65.3829883 105.009342,65.874233 C104.719556,66.3654778 104.186153,66.6609277 103.616,66.646 C102.764628,66.6237094 102.086278,65.926701 102.087092,65.0750374 C102.087906,64.2233738 102.767587,63.5276632 103.619,63.507 Z M103.619,67.546 C104.485535,67.5465523 105.187552,68.2494652 105.187,69.116 C105.186448,69.9825348 104.483535,70.6845523 103.617,70.684 C102.750465,70.6834477 102.048448,69.9805348 102.049,69.114 C102.049552,68.2474652 102.752465,67.5454477 103.619,67.546 Z M103.619,71.373 C104.485535,71.373 105.188,72.0754652 105.188,72.942 C105.188,73.8085348 104.485535,74.511 103.619,74.511 C102.752465,74.511 102.05,73.8085348 102.05,72.942 C102.05,72.0754652 102.752465,71.373 103.619,71.373 Z M103.619,75.412 C104.17955,75.4123572 104.697328,75.7117371 104.977294,76.197366 C105.257259,76.6829949 105.256878,77.2810944 104.976294,77.766366 C104.69571,78.2516377 104.17755,78.5503573 103.617,78.55 C102.750465,78.5494477 102.048448,77.8465347 102.049,76.98 C102.049552,76.1134653 102.752465,75.4114478 103.619,75.412 Z M95.965,59.468 C96.832,59.468 97.533,60.171 97.533,61.038 C97.533,61.9039825 96.8309825,62.606 95.965,62.606 C95.0990175,62.606 94.397,61.9039825 94.397,61.038 C94.3964691,60.6217941 94.5614343,60.2224532 94.8555489,59.9279634 C95.1496635,59.6334737 95.5487938,59.4679997 95.965,59.468 Z M95.965,67.546 C96.8308523,67.5460002 97.5328157,68.2478146 97.5329996,69.1136669 C97.5331836,69.9795191 96.8315184,70.6816318 95.9656662,70.6819999 C95.099814,70.6823679 94.3975522,69.9808521 94.397,69.115 C94.3967347,68.6989673 94.5618171,68.2998834 94.8559029,68.0056101 C95.1499887,67.7113367 95.5489672,67.5459999 95.965,67.546 Z M95.965,71.427 C96.5385592,71.406882 97.0773378,71.701524 97.3698729,72.1952831 C97.662408,72.6890423 97.6620163,73.3031238 97.3688517,73.7965094 C97.075687,74.2898951 96.5365331,74.5838496 95.963,74.563 C95.1188169,74.5323115 94.4504616,73.8387757 94.4510003,72.9940351 C94.451539,72.1492945 95.1207784,71.4566117 95.965,71.427 Z M95.965,75.412 C96.5344531,75.3976157 97.0669147,75.6931936 97.3558748,76.1840967 C97.6448348,76.6749997 97.6448348,77.2840003 97.3558748,77.7749033 C97.0669147,78.2658064 96.5344531,78.5613843 95.965,78.547 C95.114713,78.5255219 94.4365948,77.8300582 94.4365948,76.9795 C94.4365948,76.1289418 95.114713,75.4334781 95.965,75.412 Z M91.926,59.468 C92.486907,59.468 93.0052064,59.7672403 93.2856599,60.253 C93.5661134,60.7387597 93.5661134,61.3372403 93.2856599,61.823 C93.0052064,62.3087597 92.486907,62.608 91.926,62.608 C91.0589129,62.608 90.356,61.9050871 90.356,61.038 C90.356,60.1709129 91.0589129,59.468 91.926,59.468 Z M91.926,67.546 C92.4961683,67.5314262 93.0293927,67.8272138 93.3188715,68.3186467 C93.6083503,68.8100796 93.6085445,69.4198488 93.3193789,69.911466 C93.0302133,70.4030833 92.4971775,70.6992105 91.927,70.685 C91.0756102,70.6637808 90.3963883,69.9676417 90.396117,69.1159875 C90.3958457,68.2643334 91.0746239,67.5677616 91.926,67.546 Z M91.926,75.412 C92.4961683,75.3974262 93.0293927,75.6932138 93.3188715,76.1846467 C93.6083503,76.6760796 93.6085445,77.2858488 93.3193789,77.777466 C93.0302133,78.2690833 92.4971775,78.5652105 91.927,78.551 C91.0756102,78.5297808 90.3963883,77.8336417 90.396117,76.9819875 C90.3958457,76.1303334 91.0746239,75.4337616 91.926,75.412 Z M87.888,59.468 C88.7393817,59.4894921 89.4183799,60.1858471 89.4183799,61.0375 C89.4183799,61.8891529 88.7393817,62.5855079 87.888,62.607 C87.4719672,62.6070001 87.0729887,62.4416633 86.7789029,62.1473899 C86.4848171,61.8531166 86.3197347,61.4540327 86.32,61.038 C86.3192029,60.6217129 86.4840825,60.2222173 86.7782548,59.9276698 C87.0724271,59.6331222 87.4717122,59.4677336 87.888,59.468 Z M87.888,63.507 C88.4691496,63.4743511 89.0206683,63.7659024 89.3209737,64.264518 C89.621279,64.7631335 89.62108,65.3869725 89.3204567,65.8853964 C89.0198333,66.3838202 88.4681286,66.6750196 87.887,66.642 C87.0556596,66.5947634 86.405798,65.9067087 86.4060636,65.0740275 C86.4063292,64.2413462 87.0566297,63.5537063 87.888,63.507 Z M87.888,67.546 C88.448907,67.5461786 88.9671111,67.845584 89.2474099,68.331433 C89.5277087,68.817282 89.5275181,69.4157626 89.2469099,69.901433 C88.9663017,70.3871034 88.447907,70.6861786 87.887,70.686 C87.019913,70.6857238 86.3172239,69.982587 86.3175,69.1155 C86.3177762,68.248413 87.020913,67.5457239 87.888,67.546 Z M87.888,75.412 C88.7276003,75.4487278 89.389387,76.1400968 89.389387,76.9805 C89.389387,77.8209032 88.7276003,78.5122722 87.888,78.549 C87.0371656,78.5275149 86.3586074,77.8316056 86.3586074,76.9805 C86.3586074,76.1293944 87.0371656,75.4334851 87.888,75.412 Z M79.598,59.468 C80.1681736,59.4536067 80.7013049,59.7495638 80.9906279,60.2410894 C81.2799508,60.7326149 81.2799508,61.3423851 80.9906279,61.8339106 C80.7013049,62.3254362 80.1681736,62.6213933 79.598,62.607 C78.7466183,62.5855079 78.0676201,61.8891529 78.0676201,61.0375 C78.0676201,60.1858471 78.7466183,59.4894921 79.598,59.468 Z M79.598,63.507 C80.4645348,63.507 81.167,64.2094652 81.167,65.076 C81.167,65.9425348 80.4645348,66.645 79.598,66.645 C78.7314652,66.645 78.029,65.9425348 78.029,65.076 C78.029,64.2094652 78.7314652,63.507 79.598,63.507 Z M79.598,67.546 C80.1583711,67.5458213 80.6762706,67.8446107 80.9566109,68.329817 C81.2369512,68.8150233 81.2371418,69.4129321 80.9571109,69.898317 C80.67708,70.3837019 80.1593711,70.6828214 79.599,70.683 C78.7327414,70.6832761 78.0302761,69.9812586 78.03,69.115 C78.0297239,68.2487414 78.7317414,67.5462761 79.598,67.546 Z M79.598,71.427 C80.4642586,71.427 81.1665,72.1292414 81.1665,72.9955 C81.1665,73.8617586 80.4642586,74.564 79.598,74.564 C78.7471656,74.5425149 78.0686074,73.8466056 78.0686074,72.9955 C78.0686074,72.1443944 78.7471656,71.4484851 79.598,71.427 Z M79.598,75.412 C80.4642586,75.4117239 81.1667239,76.1137414 81.167,76.98 C81.1672761,77.8462586 80.4652586,78.5487239 79.599,78.549 C78.7327414,78.5492761 78.0302761,77.8472586 78.03,76.981 C78.0297239,76.1147414 78.7317414,75.4122761 79.598,75.412 Z M75.559,63.507 C76.4249825,63.507 77.127,64.2090175 77.127,65.075 C77.127,65.9409825 76.4249825,66.643 75.559,66.643 C74.6930175,66.643 73.991,65.9409825 73.991,65.075 C73.991,64.2090175 74.6930175,63.507 75.559,63.507 Z M67.057,63.295 C67.6381496,63.2623511 68.1896683,63.5539024 68.4899737,64.052518 C68.790279,64.5511335 68.79008,65.1749725 68.4894567,65.6733964 C68.1888333,66.1718202 67.6371286,66.4630196 67.056,66.43 C66.2246596,66.3827634 65.574798,65.6947087 65.5750636,64.8620275 C65.5753292,64.0293462 66.2256297,63.3417063 67.057,63.295 Z M67.057,67.333 C67.6180856,67.3335359 68.1362642,67.6333667 68.4163429,68.119549 C68.6964216,68.6057314 68.6958498,69.2044026 68.4148429,69.690049 C68.133836,70.1756955 67.6150856,70.4745359 67.054,70.474 C66.1866368,70.4731716 65.4841716,69.7693632 65.485,68.902 C65.4858285,68.0346368 66.1896368,67.3321716 67.057,67.333 Z M63.018,59.255 C63.8850871,59.2558284 64.5873284,59.9594129 64.5865,60.8265 C64.5856716,61.6935871 63.8820871,62.3958284 63.015,62.395 C62.1479129,62.3941716 61.4456716,61.6905871 61.4465,60.8235 C61.4473284,59.9564129 62.1509129,59.2541716 63.018,59.255 Z M63.018,63.295 C63.5881806,63.2811621 64.1210181,63.5776311 64.4098648,64.0694288 C64.6987114,64.5612266 64.6981286,65.1709883 64.4083425,65.662233 C64.1185563,66.1534778 63.5851531,66.4489277 63.015,66.434 C62.1636278,66.4117094 61.4852784,65.714701 61.4860924,64.8630374 C61.4869063,64.0113738 62.1665867,63.3156632 63.018,63.295 Z M63.018,67.333 C63.578907,67.3335359 64.0969205,67.6332714 64.3769099,68.119299 C64.6568993,68.6053267 64.6563275,69.2038073 64.3754099,69.689299 C64.0944923,70.1747908 63.575907,70.4735359 63.015,70.473 C62.1479129,70.4721716 61.4456716,69.7685871 61.4465,68.9015 C61.4473284,68.0344129 62.1509129,67.3321716 63.018,67.333 Z M63.018,71.373 C63.5878172,71.358794 64.1205182,71.6547316 64.4095024,72.1460376 C64.6984865,72.6373436 64.6982923,73.246728 64.4089949,73.7378497 C64.1196976,74.2289714 63.586808,74.5245693 63.017,74.51 C62.1661713,74.4882454 61.4878331,73.7921192 61.4881044,72.9410125 C61.4883757,72.0899057 62.1671576,71.3942122 63.018,71.373 Z M58.764,63.295 C59.6305348,63.295 60.333,63.9974652 60.333,64.864 C60.333,65.7305348 59.6305348,66.433 58.764,66.433 C57.8974652,66.433 57.195,65.7305348 57.195,64.864 C57.195,63.9974652 57.8974652,63.295 58.764,63.295 Z M58.764,67.333 C59.3341736,67.3186067 59.8673049,67.6145638 60.1566279,68.1060894 C60.4459508,68.5976149 60.4459508,69.2073851 60.1566279,69.6989106 C59.8673049,70.1904362 59.3341736,70.4863933 58.764,70.472 C57.9126183,70.4505079 57.2336201,69.7541529 57.2336201,68.9025 C57.2336201,68.0508471 57.9126183,67.3544921 58.764,67.333 Z M58.764,71.373 C59.324907,71.3731786 59.8431111,71.672584 60.1234099,72.158433 C60.4037087,72.644282 60.4035181,73.2427626 60.1229099,73.728433 C59.8423017,74.2141034 59.323907,74.5131786 58.763,74.513 C57.895913,74.5127238 57.1932239,73.809587 57.1935,72.9425 C57.1937762,72.075413 57.896913,71.3727239 58.764,71.373 Z M58.764,75.412 C59.6302586,75.4117239 60.3327239,76.1137414 60.333,76.98 C60.3332761,77.8462586 59.6312586,78.5487239 58.765,78.549 C57.8987414,78.5492761 57.1962761,77.8472586 57.196,76.981 C57.1957239,76.1147414 57.8977414,75.4122761 58.764,75.412 Z M54.3,63.295 C55.166697,63.2944473 55.8698961,63.9963035 55.871,64.863 C55.871,65.7300871 55.1680871,66.433 54.301,66.433 C53.4339129,66.433 52.731,65.7300871 52.731,64.863 C52.7321029,63.9970844 53.4340838,63.2955508 54.3,63.295 Z M54.3,67.333 C54.8742713,67.3125001 55.4139146,67.607176 55.7071318,68.1013738 C56.0003489,68.5955716 56.0003489,69.2104284 55.7071318,69.7046262 C55.4139146,70.198824 54.8742713,70.4934999 54.3,70.473 C53.4547105,70.4428255 52.7850446,69.7488279 52.7850446,68.903 C52.7850446,68.0571721 53.4547105,67.3631745 54.3,67.333 Z M50.263,63.295 C50.8441496,63.2623511 51.3956683,63.5539024 51.6959737,64.052518 C51.996279,64.5511335 51.99608,65.1749725 51.6954567,65.6733964 C51.3948333,66.1718202 50.8431286,66.4630196 50.262,66.43 C49.4306596,66.3827634 48.780798,65.6947087 48.7810636,64.8620275 C48.7813292,64.0293462 49.4316297,63.3417063 50.263,63.295 Z M50.263,67.333 C51.1300871,67.333 51.833,68.0359129 51.833,68.903 C51.833,69.7700871 51.1300871,70.473 50.263,70.473 C49.3959129,70.473 48.693,69.7700871 48.693,68.903 C48.693,68.0359129 49.3959129,67.333 50.263,67.333 Z"/>
  </g>
</svg>
