<svg xmlns="http://www.w3.org/2000/svg" width="160" height="160" viewBox="0 0 160 160">
  <g fill="#363636">
    <path d="M115.131,84.639 L115.131,72.003 C115.131,70.694 116.176,69.633 117.466,69.633 L125.792,71.214 L125.792,63.02 C125.792,60.665 124.084,59.589 121.59,58.755 L98.403,52.175 C100.019,53.566 100.292,54.215 100.292,56.571 L100.292,101.78 C100.292,104.136 99.842,105.846 98.325,106.99 L121.59,99.925 C123.991,99.092 125.792,95.709 125.792,93.353 L125.792,85.44 L117.466,87.007 C116.176,87.009 115.131,85.947 115.131,84.639 Z"/>
    <path d="M126.129,72.979 L118.531,71.535 C117.523,71.535 116.707,72.364 116.707,73.386 L116.707,83.254 C116.707,84.277 117.523,85.106 118.531,85.106 L126.129,83.675 C127.283,83.256 127.953,82.846 127.953,81.823 L127.953,74.83 C127.953,73.808 127.187,73.323 126.129,72.979 Z M98.17,56.483 C98.17,51.403 93.938,52.024 93.938,52.024 C93.938,52.024 36.832,56.738 33.838,57.145 C30.844,57.552 31.001,61.532 31.001,61.532 L31,97.812 C31,101.555 33.599,101.565 33.599,101.565 L50.076,102.968 L58.212,91.3 C58.212,91.3 59.321,89.472 60.717,89.472 C62.114,89.472 63.149,91.333 63.149,91.333 L72.21,104.854 C72.21,104.854 91.105,106.763 94.731,106.763 C98.357,106.762 98.17,101.739 98.17,101.739 L98.17,56.483 Z M43.982,89.192 C40.284,89.192 37.286,84.591 37.286,78.917 C37.286,73.243 40.284,68.642 43.982,68.642 C47.68,68.642 50.678,73.243 50.678,78.917 C50.678,84.591 47.68,89.192 43.982,89.192 Z M80.14,90.618 C75.478,90.618 71.699,85.379 71.699,78.917 C71.699,72.454 75.479,67.215 80.14,67.215 C84.802,67.215 88.582,72.454 88.582,78.917 C88.582,85.379 84.802,90.618 80.14,90.618 Z"/>
  </g>
</svg>
