<svg xmlns="http://www.w3.org/2000/svg" width="160" height="160" viewBox="0 0 160 160">
  <g fill="#363636">
    <path d="M25.052,49.258 C19.507,49.745 14.838,50.85 13.575,51.93 C12.853,52.546 12.853,52.546 13.343,53.086 C13.987,53.806 17.056,54.731 20.59,55.323 C24.588,55.991 33.1,56.016 34.314,55.374 C35.525,54.706 35.938,53.96 35.938,52.393 C35.938,50.774 35.318,49.977 33.72,49.54 C32.274,49.154 27.94,49 25.052,49.258 Z M38.774,49.488 C38.645,49.771 38.516,51.596 38.516,53.6 C38.516,57.661 38.671,57.378 36.324,57.533 L35.294,57.61 L35.164,60.155 L35.035,62.699 L33.849,62.982 C31.269,63.65 29.849,65.577 30.057,68.276 C30.185,70.203 31.087,71.617 32.636,72.363 C33.745,72.876 34.106,72.901 43.882,72.901 C49.427,72.901 54.019,72.98 54.07,73.081 C54.121,73.211 52.96,82.489 51.49,93.721 C50.046,104.951 48.808,114.718 48.782,115.387 C48.731,117.004 49.608,118.007 51.13,118.007 C52.367,118.007 53.142,117.367 53.451,116.107 C53.581,115.593 54.947,105.773 56.469,94.285 C57.991,82.822 59.332,73.416 59.409,73.416 C59.513,73.416 60.493,74.829 61.602,76.552 C64.542,81.178 64.001,80.869 69.237,80.869 L73.596,80.869 L73.596,86.499 L68.463,86.576 C63.743,86.653 63.253,86.703 62.582,87.191 C61.009,88.348 60.957,88.606 60.957,98.168 C60.957,107.702 60.983,107.96 62.479,109.218 L63.33,109.913 L94.695,109.913 L95.546,109.217 C97.042,107.96 97.066,107.702 97.066,98.167 C97.066,88.607 97.016,88.348 95.444,87.191 C94.773,86.703 94.283,86.653 89.562,86.576 L84.43,86.499 L84.43,80.869 L88.79,80.869 C94.024,80.869 93.483,81.178 96.423,76.552 C97.533,74.829 98.513,73.416 98.617,73.416 C98.693,73.416 100.035,82.822 101.557,94.285 C103.079,105.773 104.446,115.593 104.575,116.106 C104.885,117.366 105.657,118.008 106.896,118.008 C108.417,118.008 109.296,117.004 109.243,115.387 C109.217,114.717 107.979,104.951 106.533,93.721 C105.065,82.489 103.903,73.211 103.956,73.081 C104.006,72.98 108.597,72.901 114.146,72.901 C123.92,72.901 124.281,72.876 125.389,72.363 C126.937,71.617 127.839,70.203 127.969,68.276 C128.175,65.577 126.757,63.65 124.177,62.982 L122.99,62.699 L122.863,60.155 L122.733,57.61 L121.702,57.533 C119.355,57.378 119.508,57.661 119.508,53.6 C119.508,51.596 119.38,49.771 119.251,49.488 C119.045,49.128 118.708,49 117.884,49 C117.265,49 116.646,49.128 116.464,49.309 C116.258,49.514 116.154,50.774 116.154,53.241 C116.154,55.708 116.052,56.968 115.845,57.173 C115.665,57.353 114.944,57.481 114.195,57.481 C112.57,57.481 112.545,57.533 112.545,60.591 L112.545,62.878 L45.48,62.878 L45.48,60.591 C45.48,57.533 45.456,57.481 43.83,57.481 C43.082,57.481 42.36,57.352 42.18,57.173 C41.973,56.968 41.87,55.708 41.87,53.241 C41.87,50.774 41.767,49.514 41.56,49.309 C41.38,49.129 40.76,49 40.142,49 C39.317,49 38.982,49.128 38.774,49.488 Z M81.617,89.608 C84.506,90.507 87.009,93.001 87.783,95.776 C88.222,97.319 88.093,99.992 87.499,101.56 C86.803,103.435 84.814,105.57 82.934,106.495 C81.644,107.137 81.18,107.214 79.013,107.214 C76.846,107.214 76.382,107.137 75.093,106.495 C73.208,105.569 71.223,103.435 70.526,101.56 C69.934,99.992 69.804,97.32 70.243,95.776 C70.991,93.053 73.493,90.506 76.304,89.608 C78.316,88.966 79.604,88.966 81.617,89.608 Z"/>
    <path d="M76.794,93.438 C74.757,94.363 73.287,97.087 73.725,99.168 C74.499,102.845 78.548,104.721 81.721,102.87 C83.706,101.712 84.711,99.323 84.171,97.087 C83.603,94.697 81.437,92.949 79.013,92.949 C78.367,92.949 77.387,93.181 76.793,93.438 L76.794,93.438 Z M49.092,49.154 C45.172,49.822 44.579,50.285 44.579,52.598 C44.579,54.423 45.042,55.014 46.847,55.554 C48.397,56.016 54.019,56.068 57.347,55.682 C64.207,54.86 68.668,53.138 67.045,51.93 C65.78,51.03 62.143,50.054 57.991,49.54 C55.516,49.232 49.995,49 49.091,49.154 L49.092,49.154 Z M102.484,49.258 C96.165,49.848 90.62,51.339 90.62,52.444 C90.62,54.166 98.46,55.914 106.25,55.939 C112.054,55.939 113.446,55.297 113.446,52.599 C113.446,50.774 112.827,49.977 111.073,49.514 C109.423,49.103 105.398,49 102.484,49.258 Z M125.776,49.283 C123.996,49.514 122.758,50.053 122.346,50.774 C121.959,51.544 122.036,53.678 122.5,54.346 C123.428,55.656 124.152,55.811 129.568,55.811 C133.229,55.811 135.37,55.682 137.435,55.323 C140.969,54.731 144.038,53.806 144.683,53.086 C145.173,52.546 145.173,52.546 144.45,51.93 C143.11,50.8 138.492,49.745 132.534,49.258 C129.053,48.975 128.046,48.975 125.776,49.283 Z"/>
  </g>
</svg>
