<svg xmlns="http://www.w3.org/2000/svg" width="160" height="160" viewBox="0 0 160 160">
  <g fill="#363636">
    <path d="M102.349,39.49 C102.349,38.754 101.771,38 101.038,38 L58.053,38 C57.32,38 56.672,38.754 56.672,39.49 L56.672,43.012 L102.348,43.012 L102.348,39.49 L102.349,39.49 Z M103.202,119.809 L93.605,119.809 L93.605,109.426 L86.647,109.426 L86.647,111.933 L67.774,111.933 C67.237,110.679 66.017,109.785 64.593,109.785 L52.559,109.785 C50.642,109.784 49,111.387 49,113.311 L49,116.329 C49,118.253 50.642,119.809 52.559,119.809 L64.594,119.809 C66.105,119.809 67.386,118.913 67.863,117.483 L86.648,117.483 L86.648,119.809 L77.13,119.809 C76.597,119.809 76.12,120.246 76.12,120.781 L76.12,123.953 C76.12,124.488 76.598,125.001 77.13,125.001 L103.202,125.001 C103.735,125.001 104.132,124.488 104.132,123.953 L104.132,120.78 C104.132,120.245 103.735,119.809 103.202,119.809 Z M109.666,50.39 C108.782584,47.3886303 106.023668,45.3309537 102.895,45.34 L56.148,45.34 C52.25,45.34 49,48.449 49,52.361 L49,99.261 C49,103.173 52.25,106.382 56.148,106.382 L102.895,106.382 C106.793,106.382 110.021,103.173 110.021,99.261 L110.021,88.915 C116.305085,84.5619062 120.044965,77.3955155 120.022,69.751 C120.021,61.672 115.89,54.57 109.666,50.39 Z M61.238,100.151 C57.979,100.151 55.337,97.501 55.337,94.23 C55.337,90.96 57.979,88.308 61.238,88.308 C64.497,88.308 67.14,90.96 67.14,94.23 C67.14,97.501 64.497,100.151 61.238,100.151 Z M67.199,67.546 C67.1995308,67.9226075 67.0504329,68.284001 66.7845063,68.5506778 C66.5185796,68.8173546 66.1576075,68.9674699 65.781,68.968 L56.841,68.968 C56.4643925,68.9674699 56.1034204,68.8173546 55.8374937,68.5506778 C55.5715671,68.284001 55.4224692,67.9226075 55.423,67.546 L55.423,53.386 C55.4222036,53.0092194 55.5711842,52.6475689 55.8371396,52.3806757 C56.103095,52.1137825 56.4642189,51.9635298 56.841,51.963 L65.78,51.963 C66.1567811,51.9635298 66.517905,52.1137825 66.7838604,52.3806757 C67.0498158,52.6475689 67.1987964,53.0092194 67.198,53.386 L67.198,67.546 L67.199,67.546 Z M96.762,89.858 C85.686,89.858 76.705,80.848 76.705,69.735 C76.705,58.622 85.685,49.611 96.762,49.611 C107.839,49.611 116.82,58.621 116.82,69.735 C116.82,80.849 107.839,89.858 96.762,89.858 Z"/>
    <ellipse cx="96.762" cy="69.735" rx="12.188" ry="12.229"/>
    <circle cx="80.562" cy="69.736" r="1.435"/>
    <circle cx="112.963" cy="69.736" r="1.435"/>
    <circle cx="88.109" cy="55.994" r="1.435"/>
    <ellipse cx="105.415" cy="83.476" rx="1.43" ry="1.436"/>
    <circle cx="104.697" cy="55.565" r="1.435"/>
    <circle cx="88.828" cy="83.906" r="1.435"/>
  </g>
</svg>
