<svg xmlns="http://www.w3.org/2000/svg" width="160" height="160" viewBox="0 0 160 160">
  <path fill="#363636" d="M109.494,64.197 L107.979,64.197 L107.979,59.557 C107.979,54.505 103.892,50.371 98.897,50.371 L64.082,50.371 C59.086,50.372 55,54.505 55,59.557 L55,102.425 C55,107.477 59.087,111.61 64.083,111.61 L98.898,111.61 C103.893,111.61 107.98,107.477 107.98,102.425 L107.98,99.01 L109.495,99.01 C109.914209,99.0061589 110.252018,98.6652269 110.252,98.246 L110.252,84.467 C110.252572,84.0472171 109.91476,83.7053895 109.495,83.701 L107.98,83.701 L107.98,74.913 L109.495,74.913 C110.327,74.913 111.009,74.225 111.009,73.382 L111.009,65.728 C111.010134,64.8882144 110.333751,64.2046886 109.494,64.197 Z M89.082,61.088 C92.008,61.088 94.381,63.486 94.381,66.446 C94.381,69.406 92.008,71.804 89.082,71.804 C86.156,71.804 83.784,69.406 83.784,66.446 C83.784,63.486 86.156,61.088 89.082,61.088 Z M73.945,61.088 C76.87,61.088 79.243,63.486 79.243,66.446 C79.243,69.406 76.87,71.804 73.945,71.804 C71.019,71.804 68.647,69.406 68.647,66.446 C68.647,63.486 71.019,61.088 73.945,61.088 Z M60.297,81.397 C60.297,78.438 62.668,76.039 65.595,76.039 C68.521,76.039 70.893,78.438 70.893,81.397 C70.893,84.356 68.52,86.755 65.595,86.755 C62.668,86.756 60.297,84.356 60.297,81.397 Z M73.945,100.894 C71.019,100.894 68.647,98.496 68.647,95.536 C68.647,92.576 71.019,90.178 73.945,90.178 C76.87,90.178 79.243,92.576 79.243,95.536 C79.243,98.496 76.87,100.894 73.945,100.894 Z M75.435,80.991 C75.435,77.609 78.146,74.867 81.49,74.867 C84.834,74.867 87.545,77.609 87.545,80.991 C87.545,84.373 84.834,87.115 81.49,87.115 C78.146,87.114 75.435,84.373 75.435,80.991 Z M89.082,100.894 C86.156,100.894 83.784,98.496 83.784,95.536 C83.784,92.576 86.156,90.178 89.082,90.178 C92.008,90.178 94.381,92.576 94.381,95.536 C94.381,98.496 92.008,100.894 89.082,100.894 Z M97.384,86.756 C94.457,86.756 92.086,84.357 92.086,81.398 C92.086,78.439 94.457,76.04 97.384,76.04 C100.31,76.04 102.682,78.439 102.682,81.398 C102.682,84.356 100.31,86.756 97.384,86.756 Z M64.646,47.31 L98.333,47.31 C99.176,47.31 99.765,46.629 99.639,45.796 L98.023,35.028 L98.021,35.026 C97.771,33.362 96.189,32 94.506,32 L68.474,32 C66.788,32 65.206,33.362 64.957,35.028 L63.342,45.795 C63.217,46.628 63.803,47.31 64.646,47.31 Z M98.333,114.671 L64.646,114.671 C63.803,114.671 63.217,115.354 63.342,116.187 L64.957,126.954 C65.207,128.62 66.789,129.982 68.473,129.982 L94.505,129.982 C96.189,129.982 97.771,128.62 98.022,126.956 L98.022,126.954 L99.637,116.187 C99.765,115.354 99.176,114.671 98.333,114.671 Z"/>
</svg>
