<svg xmlns="http://www.w3.org/2000/svg" width="160" height="160" viewBox="0 0 160 160">
  <path fill="#363636" d="M120.821,45.011 L41.33,45.011 C39.5693162,45.011 38.142,46.4383162 38.142,48.199 L38.142,94.612 C38.1414692,95.4577647 38.4771444,96.2690562 39.0750967,96.8671961 C39.673049,97.4653359 40.4842352,97.8012655 41.33,97.801 L120.822,97.801 C121.667857,97.8012654 122.479146,97.4653676 123.077257,96.8672566 C123.675368,96.2691455 124.011265,95.4578567 124.011,94.612 L124.011,48.199 C124.010735,47.3532246 123.674498,46.5421953 123.076256,45.9443293 C122.478015,45.3464633 121.666775,45.0107347 120.821,45.011 Z M46.392,78.236 L46.166,78.236 C44.4049926,78.235448 42.977552,76.8080074 42.977,75.047 L42.977,67.764 C42.977,66.9183165 43.3130148,66.1072847 43.9110971,65.50939 C44.5091794,64.9114952 45.3203166,64.5757347 46.166,64.576 L46.392,64.5759998 L46.392,78.236 Z M107.623,93.408 L51.341,93.408 L51.341,49.402 L107.623,49.402 L107.623,93.408 Z M116.4,75.552 C114.111,75.552 112.254,73.697 112.254,71.405 C112.254,69.113 114.11,67.258 116.4,67.258 C118.690325,67.258 120.547,69.1146751 120.547,71.405 C120.547,73.6953249 118.690325,75.552 116.4,75.552 Z M69.497,41 L92.654,41 L92.654,43.758 L69.497,43.758 L69.497,41 Z M84.608,105.861 L84.608,102.888 L92.654,102.888 L92.654,100.13 L69.498,100.13 L69.498,102.888 L77.543,102.888 L77.543,138.134 C75.3347309,139.100511 73.9079519,141.282482 73.908,143.693 L73.908,158 L88.243,158 L88.243,143.693 C88.2436398,141.282506 86.8160464,139.100675 84.607,138.136 L84.607,110.146 L89.403,110.146 L94.454,111.359 L94.454,104.648 L89.403,105.861 L84.608,105.861 Z"/>
</svg>
